<svg xmlns="http://www.w3.org/2000/svg"
    viewBox="0 0 498 362"
    width="498" height="362">
  <path d="M 483.00 28.00 L 471.00 16.00 L 464.00 11.00 L 452.00 5.00 L 432.00 0.00 L 415.00 0.00 L 397.00 4.00 L 378.00 13.00 L 363.00 24.00 L 344.00 44.00 L 322.00 77.00 L 309.00 102.00 L 289.00 148.00 L 303.00 160.00 L 314.00 173.00 L 317.00 179.00 L 336.00 132.00 L 357.00 90.00 L 374.00 65.00 L 391.00 48.00 L 407.00 39.00 L 421.00 36.00 L 436.00 38.00 L 446.00 43.00 L 456.00 53.00 L 460.00 62.00 L 461.00 80.00 L 459.00 88.00 L 451.00 104.00 L 442.00 116.00 L 431.00 128.00 L 405.00 150.00 L 387.00 162.00 L 364.00 175.00 L 307.00 201.00 L 305.00 200.00 L 300.00 190.00 L 291.00 178.00 L 273.00 161.00 L 264.00 155.00 L 248.00 147.00 L 228.00 141.00 L 217.00 140.00 L 216.00 139.00 L 191.00 139.00 L 190.00 140.00 L 178.00 141.00 L 154.00 148.00 L 130.00 160.00 L 110.00 174.00 L 96.00 186.00 L 83.00 199.00 L 61.00 226.00 L 38.00 263.00 L 22.00 295.00 L 0.00 351.00 L 1.00 352.00 L 41.00 352.00 L 54.00 317.00 L 74.00 276.00 L 92.00 247.00 L 106.00 229.00 L 130.00 205.00 L 148.00 192.00 L 171.00 181.00 L 191.00 176.00 L 216.00 176.00 L 236.00 182.00 L 251.00 191.00 L 267.00 207.00 L 271.00 214.00 L 269.00 216.00 L 256.00 221.00 L 217.00 241.00 L 199.00 254.00 L 190.00 263.00 L 182.00 274.00 L 175.00 292.00 L 174.00 309.00 L 178.00 325.00 L 184.00 336.00 L 194.00 347.00 L 206.00 355.00 L 216.00 359.00 L 225.00 361.00 L 242.00 361.00 L 258.00 357.00 L 272.00 350.00 L 280.00 344.00 L 293.00 331.00 L 302.00 318.00 L 310.00 301.00 L 315.00 284.00 L 316.00 273.00 L 317.00 272.00 L 317.00 246.00 L 315.00 237.00 L 320.00 234.00 L 355.00 220.00 L 387.00 204.00 L 409.00 191.00 L 442.00 167.00 L 465.00 145.00 L 475.00 133.00 L 489.00 110.00 L 493.00 100.00 L 497.00 83.00 L 496.00 58.00 L 492.00 44.00 Z M 280.00 251.00 L 281.00 252.00 L 280.00 268.00 L 277.00 282.00 L 273.00 293.00 L 264.00 308.00 L 256.00 316.00 L 250.00 320.00 L 240.00 324.00 L 229.00 324.00 L 220.00 320.00 L 214.00 313.00 L 212.00 306.00 L 213.00 297.00 L 218.00 288.00 L 231.00 276.00 L 242.00 269.00 Z" fill="#FFFFFF" fill-rule="nonzero"/>
</svg>
